<svg width="495" height="495" viewBox="0 0 495 495" fill="none" xmlns="http://www.w3.org/2000/svg">
<path d="M247.5 494C267.049 494 282.897 478.152 282.897 458.603C282.897 439.054 267.049 423.206 247.5 423.206C227.95 423.206 212.102 439.054 212.102 458.603C212.102 478.152 227.95 494 247.5 494Z" stroke="white" stroke-linecap="round" stroke-linejoin="round"/>
<path d="M212.103 432.597C231.652 432.597 247.5 416.749 247.5 397.2C247.5 377.65 231.652 361.802 212.103 361.802C192.553 361.802 176.705 377.65 176.705 397.2C176.705 416.749 192.553 432.597 212.103 432.597Z" stroke="white" stroke-linecap="round" stroke-linejoin="round"/>
<path d="M282.897 432.597C302.447 432.597 318.295 416.749 318.295 397.2C318.295 377.65 302.447 361.802 282.897 361.802C263.348 361.802 247.5 377.65 247.5 397.2C247.5 416.749 263.348 432.597 282.897 432.597Z" stroke="white" stroke-linecap="round" stroke-linejoin="round"/>
<path d="M36.3974 282.898C55.9469 282.898 71.7949 267.05 71.7949 247.5C71.7949 227.951 55.9469 212.103 36.3974 212.103C16.848 212.103 1 227.951 1 247.5C1 267.05 16.848 282.898 36.3974 282.898Z" stroke="white" stroke-linecap="round" stroke-linejoin="round"/>
<path d="M97.8008 247.5C117.35 247.5 133.198 231.652 133.198 212.103C133.198 192.554 117.35 176.706 97.8008 176.706C78.2513 176.706 62.4033 192.554 62.4033 212.103C62.4033 231.652 78.2513 247.5 97.8008 247.5Z" stroke="white" stroke-linecap="round" stroke-linejoin="round"/>
<path d="M97.8008 318.295C117.35 318.295 133.198 302.447 133.198 282.898C133.198 263.348 117.35 247.5 97.8008 247.5C78.2513 247.5 62.4033 263.348 62.4033 282.898C62.4033 302.447 78.2513 318.295 97.8008 318.295Z" stroke="white" stroke-linecap="round" stroke-linejoin="round"/>
<path d="M247.5 71.7949C267.049 71.7949 282.897 55.9469 282.897 36.3974C282.897 16.848 267.049 1 247.5 1C227.95 1 212.102 16.848 212.102 36.3974C212.102 55.9469 227.95 71.7949 247.5 71.7949Z" stroke="white" stroke-linecap="round" stroke-linejoin="round"/>
<path d="M282.897 133.198C302.447 133.198 318.295 117.35 318.295 97.8008C318.295 78.2513 302.447 62.4033 282.897 62.4033C263.348 62.4033 247.5 78.2513 247.5 97.8008C247.5 117.35 263.348 133.198 282.897 133.198Z" stroke="white" stroke-linecap="round" stroke-linejoin="round"/>
<path d="M212.103 133.198C231.652 133.198 247.5 117.35 247.5 97.8008C247.5 78.2513 231.652 62.4033 212.103 62.4033C192.553 62.4033 176.705 78.2513 176.705 97.8008C176.705 117.35 192.553 133.198 212.103 133.198Z" stroke="white" stroke-linecap="round" stroke-linejoin="round"/>
<path d="M458.603 282.897C478.152 282.897 494 267.049 494 247.5C494 227.951 478.152 212.103 458.603 212.103C439.053 212.103 423.205 227.951 423.205 247.5C423.205 267.049 439.053 282.897 458.603 282.897Z" stroke="white" stroke-linecap="round" stroke-linejoin="round"/>
<path d="M397.199 318.295C416.749 318.295 432.597 302.447 432.597 282.897C432.597 263.348 416.749 247.5 397.199 247.5C377.65 247.5 361.802 263.348 361.802 282.897C361.802 302.447 377.65 318.295 397.199 318.295Z" stroke="white" stroke-linecap="round" stroke-linejoin="round"/>
<path d="M397.199 247.5C416.749 247.5 432.597 231.652 432.597 212.103C432.597 192.553 416.749 176.705 397.199 176.705C377.65 176.705 361.802 192.553 361.802 212.103C361.802 231.652 377.65 247.5 397.199 247.5Z" stroke="white" stroke-linecap="round" stroke-linejoin="round"/>
<path d="M397.2 247.5H97.8004" stroke="white" stroke-linecap="round" stroke-linejoin="round"/>
<path d="M247.5 97.8008V397.2" stroke="white" stroke-linecap="round" stroke-linejoin="round"/>
<path d="M39.3552 212.103C54.2192 123.806 123.806 54.2194 212.103 39.3555" stroke="white" stroke-miterlimit="10"/>
<path d="M282.898 39.3555C371.169 54.2441 440.756 123.806 455.645 212.103" stroke="white" stroke-miterlimit="10"/>
<path d="M455.645 282.897C440.756 371.169 371.194 440.756 282.898 455.645" stroke="white" stroke-miterlimit="10"/>
<path d="M212.103 455.645C123.831 440.756 54.2441 371.194 39.3555 282.897" stroke="white" stroke-miterlimit="10"/>
<path d="M108.35 178.283C123.288 148.284 147.642 123.807 177.568 108.721" stroke="white" stroke-miterlimit="10"/>
<path d="M316.717 108.351C346.963 123.412 371.588 148.038 386.649 178.283" stroke="white" stroke-miterlimit="10"/>
<path d="M386.649 316.718C371.588 346.963 346.963 371.589 316.717 386.65" stroke="white" stroke-miterlimit="10"/>
<path d="M178.282 386.65C148.037 371.589 123.412 346.963 108.35 316.718" stroke="white" stroke-miterlimit="10"/>
</svg>
