<svg width="1610" height="1610" viewBox="0 0 1610 1610" fill="none" xmlns="http://www.w3.org/2000/svg">
<path d="M1609.2 800.5H1584.9" stroke="white" stroke-miterlimit="10"/>
<path d="M1608.5 767.6L1584.1 768.8" stroke="white" stroke-miterlimit="10"/>
<path d="M1606.1 735.1L1581.8 737" stroke="white" stroke-miterlimit="10"/>
<path d="M1602.6 702.2L1578.3 705.3" stroke="white" stroke-miterlimit="10"/>
<path d="M1597.6 669.7L1573.6 673.6" stroke="white" stroke-miterlimit="10"/>
<path d="M1591.4 637.6L1567.8 642.7" stroke="white" stroke-miterlimit="10"/>
<path d="M1584.1 605.5L1560.5 611.3" stroke="white" stroke-miterlimit="10"/>
<path d="M1575.2 573.8L1552 580.8" stroke="white" stroke-miterlimit="10"/>
<path d="M1565.1 542.5L1541.9 550.6" stroke="white" stroke-miterlimit="10"/>
<path d="M1553.9 511.9L1531.1 520.4" stroke="white" stroke-miterlimit="10"/>
<path d="M1541.2 481.4L1518.7 491" stroke="white" stroke-miterlimit="10"/>
<path d="M1527.2 451.6L1505.6 462.4" stroke="white" stroke-miterlimit="10"/>
<path d="M1512.1 422.6L1490.9 433.8" stroke="white" stroke-miterlimit="10"/>
<path d="M1496.3 394L1475 406.3" stroke="white" stroke-miterlimit="10"/>
<path d="M1478.9 366.1L1458.4 379.3" stroke="white" stroke-miterlimit="10"/>
<path d="M1460.3 339L1440.2 353" stroke="white" stroke-miterlimit="10"/>
<path d="M1440.6 312.4L1421.3 327.4" stroke="white" stroke-miterlimit="10"/>
<path d="M1420.1 286.8L1401.1 302.7" stroke="white" stroke-miterlimit="10"/>
<path d="M1398.4 262.1L1380.3 278.7" stroke="white" stroke-miterlimit="10"/>
<path d="M1375.6 238.5L1358.2 255.5" stroke="white" stroke-miterlimit="10"/>
<path d="M1352 215.7L1335.4 233.5" stroke="white" stroke-miterlimit="10"/>
<path d="M1327.3 193.6L1311.4 212.2" stroke="white" stroke-miterlimit="10"/>
<path d="M1302.1 173.1L1287 192.1" stroke="white" stroke-miterlimit="10"/>
<path d="M1275.8 153L1261.5 172.7" stroke="white" stroke-miterlimit="10"/>
<path d="M1248.8 134.4L1235.2 154.9" stroke="white" stroke-miterlimit="10"/>
<path d="M1220.9 117L1208.1 137.9" stroke="white" stroke-miterlimit="10"/>
<path d="M1192.7 100.4L1180.7 121.7" stroke="white" stroke-miterlimit="10"/>
<path d="M1163.3 85.3L1152.4 107" stroke="white" stroke-miterlimit="10"/>
<path d="M1133.9 71.4L1123.8 93.4" stroke="white" stroke-miterlimit="10"/>
<path d="M1103.3 58.3L1094.4 81.1" stroke="white" stroke-miterlimit="10"/>
<path d="M1072.8 47L1064.6 69.9" stroke="white" stroke-miterlimit="10"/>
<path d="M1041.4 36.6L1034.1 59.8" stroke="white" stroke-miterlimit="10"/>
<path d="M1010.1 27.7L1003.5 50.9" stroke="white" stroke-miterlimit="10"/>
<path d="M978 20L972.6 43.6" stroke="white" stroke-miterlimit="10"/>
<path d="M945.9 13.4L941.3 37.4" stroke="white" stroke-miterlimit="10"/>
<path d="M913.4 8.40002L909.9 32.3" stroke="white" stroke-miterlimit="10"/>
<path d="M880.5 4.5L878.2 28.9" stroke="white" stroke-miterlimit="10"/>
<path d="M848.1 2.19995L846.5 26.5" stroke="white" stroke-miterlimit="10"/>
<path d="M815.2 1L814.8 25.4" stroke="white" stroke-miterlimit="10"/>
<path d="M782.3 1.40002L782.7 25.8" stroke="white" stroke-miterlimit="10"/>
<path d="M749.4 2.90002L751 27.3" stroke="white" stroke-miterlimit="10"/>
<path d="M716.6 6L719.3 30" stroke="white" stroke-miterlimit="10"/>
<path d="M684.1 10.3L687.5 34.3" stroke="white" stroke-miterlimit="10"/>
<path d="M651.6 15.7L656.2 39.7" stroke="white" stroke-miterlimit="10"/>
<path d="M619.5 22.7L625.3 46.2999" stroke="white" stroke-miterlimit="10"/>
<path d="M587.8 30.8L594.3 54.4001" stroke="white" stroke-miterlimit="10"/>
<path d="M556.4 40.5L563.8 63.7" stroke="white" stroke-miterlimit="10"/>
<path d="M525.5 51.3L533.6 74.1" stroke="white" stroke-miterlimit="10"/>
<path d="M494.9 63.3L504.2 85.7" stroke="white" stroke-miterlimit="10"/>
<path d="M464.8 76.4L474.8 98.9" stroke="white" stroke-miterlimit="10"/>
<path d="M435.4 91.1L446.2 112.8" stroke="white" stroke-miterlimit="10"/>
<path d="M406.4 106.6L418.4 127.9" stroke="white" stroke-miterlimit="10"/>
<path d="M378.1 123.6L390.9 144.5" stroke="white" stroke-miterlimit="10"/>
<path d="M350.7 141.8L364.2 161.9" stroke="white" stroke-miterlimit="10"/>
<path d="M324 160.7L338.3 180.5" stroke="white" stroke-miterlimit="10"/>
<path d="M298.1 180.9L313.1 199.8" stroke="white" stroke-miterlimit="10"/>
<path d="M272.9 202.1L289.2 220.7" stroke="white" stroke-miterlimit="10"/>
<path d="M248.9 224.6L265.6 242" stroke="white" stroke-miterlimit="10"/>
<path d="M225.3 247.8L243.1 264.8" stroke="white" stroke-miterlimit="10"/>
<path d="M203.3 271.7L221.5 288" stroke="white" stroke-miterlimit="10"/>
<path d="M182 296.9L200.6 312.4" stroke="white" stroke-miterlimit="10"/>
<path d="M161.5 322.8L181.3 337.5" stroke="white" stroke-miterlimit="10"/>
<path d="M142.6 349.5L162.7 363.4" stroke="white" stroke-miterlimit="10"/>
<path d="M124.4 376.6L144.9 389.7" stroke="white" stroke-miterlimit="10"/>
<path d="M107.4 404.8L128.7 417.2" stroke="white" stroke-miterlimit="10"/>
<path d="M91.8999 433.8L113.2 445" stroke="white" stroke-miterlimit="10"/>
<path d="M77.2002 463.2L99.3002 473.6" stroke="white" stroke-miterlimit="10"/>
<path d="M63.7002 493.4L86.1002 502.7" stroke="white" stroke-miterlimit="10"/>
<path d="M51.7002 523.5L74.5002 532.4" stroke="white" stroke-miterlimit="10"/>
<path d="M40.8999 554.9L64.0999 562.6" stroke="white" stroke-miterlimit="10"/>
<path d="M31.2002 586.2L54.8002 592.8" stroke="white" stroke-miterlimit="10"/>
<path d="M23.1001 617.9L46.7001 623.7" stroke="white" stroke-miterlimit="10"/>
<path d="M16.1001 650L39.7001 655" stroke="white" stroke-miterlimit="10"/>
<path d="M10.2998 682.5L34.2998 686.4" stroke="white" stroke-miterlimit="10"/>
<path d="M6.1001 715L30.0001 717.7" stroke="white" stroke-miterlimit="10"/>
<path d="M3 747.9L27.3 749.4" stroke="white" stroke-miterlimit="10"/>
<path d="M1 780.4L25.8 781.5" stroke="white" stroke-miterlimit="10"/>
<path d="M1.3999 812.2L25.7999 811.8" stroke="white" stroke-miterlimit="10"/>
</svg>
