<svg width="512" height="512" viewBox="0 0 512 512" fill="none" xmlns="http://www.w3.org/2000/svg">
<path d="M152.347 113.203L255.921 9.75293" stroke="#FFFFFF" stroke-miterlimit="10"/>
<path d="M255.92 295.846L358.875 399.066" stroke="#FFFFFF" stroke-miterlimit="10"/>
<path d="M255.891 216.374L152.666 113.153" stroke="#FFFFFF" stroke-miterlimit="10"/>
<path d="M152.247 265.788C157.66 265.788 162.049 261.399 162.049 255.985C162.049 250.571 157.66 246.182 152.247 246.182C146.833 246.182 142.444 250.571 142.444 255.985C142.444 261.399 146.833 265.788 152.247 265.788Z" stroke="#FFFFFF" stroke-miterlimit="10"/>
<path d="M10.3014 265.788C15.7151 265.788 20.1038 261.399 20.1038 255.985C20.1038 250.571 15.7151 246.182 10.3014 246.182C4.8877 246.182 0.499023 250.571 0.499023 255.985C0.499023 261.399 4.8877 265.788 10.3014 265.788Z" stroke="#FFFFFF" stroke-miterlimit="10"/>
<path d="M501.688 265.788C507.102 265.788 511.49 261.399 511.49 255.985C511.49 250.571 507.102 246.182 501.688 246.182C496.274 246.182 491.886 250.571 491.886 255.985C491.886 261.399 496.274 265.788 501.688 265.788Z" stroke="#FFFFFF" stroke-miterlimit="10"/>
<path d="M359.484 265.788C364.898 265.788 369.286 261.399 369.286 255.985C369.286 250.571 364.898 246.182 359.484 246.182C354.07 246.182 349.682 250.571 349.682 255.985C349.682 261.399 354.07 265.788 359.484 265.788Z" stroke="#FFFFFF" stroke-miterlimit="10"/>
<path d="M255.921 20.1049C261.334 20.1049 265.723 15.716 265.723 10.302C265.723 4.88796 261.334 0.499023 255.921 0.499023C250.507 0.499023 246.118 4.88796 246.118 10.302C246.118 15.716 250.507 20.1049 255.921 20.1049Z" stroke="#FFFFFF" stroke-miterlimit="10"/>
<path d="M255.921 511.501C261.334 511.501 265.723 507.112 265.723 501.698C265.723 496.284 261.334 491.895 255.921 491.895C250.507 491.895 246.118 496.284 246.118 501.698C246.118 507.112 250.507 511.501 255.921 511.501Z" stroke="#FFFFFF" stroke-miterlimit="10"/>
<path d="M255.921 369.408C261.334 369.408 265.723 365.019 265.723 359.605C265.723 354.191 261.334 349.802 255.921 349.802C250.507 349.802 246.118 354.191 246.118 359.605C246.118 365.019 250.507 369.408 255.921 369.408Z" stroke="#FFFFFF" stroke-miterlimit="10"/>
<path d="M255.921 162.208C261.334 162.208 265.723 157.82 265.723 152.405C265.723 146.991 261.334 142.603 255.921 142.603C250.507 142.603 246.118 146.991 246.118 152.405C246.118 157.82 250.507 162.208 255.921 162.208Z" stroke="#FFFFFF" stroke-miterlimit="10"/>
<path d="M255.92 295.237C277.597 295.237 295.17 277.663 295.17 255.985C295.17 234.307 277.597 216.733 255.92 216.733C234.243 216.733 216.671 234.307 216.671 255.985C216.671 277.663 234.243 295.237 255.92 295.237Z" stroke="#FFFFFF" stroke-miterlimit="10"/>
<path d="M255.92 10.3018V216.244" stroke="#FFFFFF" stroke-miterlimit="10"/>
<path d="M255.92 296.495V501.698" stroke="#FFFFFF" stroke-miterlimit="10"/>
<path d="M10.3018 255.985H215.663" stroke="#FFFFFF" stroke-miterlimit="10"/>
<path d="M296.367 255.985H501.728" stroke="#FFFFFF" stroke-miterlimit="10"/>
<path d="M359.175 113.083L255.891 216.373" stroke="#FFFFFF" stroke-miterlimit="10"/>
<path d="M152.376 399.136L255.92 295.846" stroke="#FFFFFF" stroke-miterlimit="10"/>
<path d="M255.92 9.75293L359.494 113.203" stroke="#FFFFFF" stroke-miterlimit="10"/>
<path d="M152.347 399.326V113.203" stroke="#FFFFFF" stroke-miterlimit="10"/>
<path d="M359.494 113.203V399.326" stroke="#FFFFFF" stroke-miterlimit="10"/>
<path d="M255.921 502.426L152.347 399.326" stroke="#FFFFFF" stroke-miterlimit="10"/>
<path d="M359.494 399.326L255.92 502.426" stroke="#FFFFFF" stroke-miterlimit="10"/>
<path d="M113.047 359.665L9.60254 256.085" stroke="#FFFFFF" stroke-miterlimit="10"/>
<path d="M295.679 256.085L398.893 153.124" stroke="#FFFFFF" stroke-miterlimit="10"/>
<path d="M216.212 256.125L112.997 359.346" stroke="#FFFFFF" stroke-miterlimit="10"/>
<path d="M112.927 152.834L216.211 256.124" stroke="#FFFFFF" stroke-miterlimit="10"/>
<path d="M398.963 359.645L295.679 256.085" stroke="#FFFFFF" stroke-miterlimit="10"/>
<path d="M9.60254 256.085L113.047 152.505" stroke="#FFFFFF" stroke-miterlimit="10"/>
<path d="M399.153 359.665H113.047" stroke="#FFFFFF" stroke-miterlimit="10"/>
<path d="M113.047 152.505H399.153" stroke="#FFFFFF" stroke-miterlimit="10"/>
<path d="M502.237 256.085L399.152 359.665" stroke="#FFFFFF" stroke-miterlimit="10"/>
<path d="M399.152 152.505L502.237 256.085" stroke="#FFFFFF" stroke-miterlimit="10"/>
</svg>
