<svg width="44" height="44" viewBox="0 0 44 44" fill="none" xmlns="http://www.w3.org/2000/svg">
<path d="M0 43L32 43M43 32L43 4.57764e-05M24 12.0013H16.135M7.53975 12.0013H3.70712e-05M12 0L12 7.69074M12 16.0088V24.0026M7.40238 12.0013L11.9986 7.40509L16.5948 12.0013L11.9986 16.5975L7.40238 12.0013Z" stroke="white"/>
<path d="M3.30664 5.20527L5.07441 3.4375L6.84217 5.20527L5.07441 6.97303L3.30664 5.20527Z" fill="white"/>
<path d="M3.30664 18.7969L5.07441 17.0291L6.84217 18.7969L5.07441 20.5646L3.30664 18.7969Z" fill="white"/>
<path d="M17.1582 5.20527L18.926 3.4375L20.6937 5.20527L18.926 6.97303L17.1582 5.20527Z" fill="white"/>
<path d="M17.1582 18.7969L18.926 17.0291L20.6937 18.7969L18.926 20.5646L17.1582 18.7969Z" fill="white"/>
</svg>
