<svg width="45" height="45" viewBox="0 0 45 45" fill="none" xmlns="http://www.w3.org/2000/svg">
<path d="M1 44L33 44M44 33L44 1.00001M1 1L10.0132 10.0132M15.8088 15.8088L25.0002 25M25 1L15.7376 10.2624M10.1425 15.8574L1.00097 25M16.8242 13C16.8242 15.2091 15.0334 17 12.8242 17C10.6151 17 8.82422 15.2091 8.82422 13C8.82422 10.7909 10.6151 9 12.8242 9C15.0334 9 16.8242 10.7909 16.8242 13Z" stroke="white"/>
<path d="M3.12299 14.768L1.35522 13.0002L3.12299 11.2325L4.89076 13.0002L3.12299 14.768Z" fill="white"/>
<path d="M11.0566 22.7028L12.8244 20.9351L14.5921 22.7028L12.8244 24.4706L11.0566 22.7028Z" fill="white"/>
<path d="M11.0566 3.29755L12.8244 1.52979L14.5921 3.29755L12.8244 5.06532L11.0566 3.29755Z" fill="white"/>
<path d="M20.7597 13.0002L22.5275 11.2324L24.2952 13.0002L22.5275 14.768L20.7597 13.0002Z" fill="white"/>
</svg>
