<svg width="1281" height="742" viewBox="0 0 1281 742" fill="none" xmlns="http://www.w3.org/2000/svg">
<path d="M641.5 423V742" stroke="#F5D64E"/>
<path d="M625 439H657" stroke="#F5D64E"/>
<path d="M625 726H657" stroke="#F5D64E"/>
<path d="M188.245 19.8001L19.6903 188.764C7.72156 200.762 1 217.017 1 233.964V393.353C1 410.408 7.80718 426.758 19.9108 438.773L188.284 605.92C200.272 617.821 216.48 624.5 233.373 624.5H1046.31C1063.09 624.5 1079.21 617.905 1091.18 606.137L1261.37 438.809C1273.61 426.777 1280.5 410.334 1280.5 393.172V237.33C1280.5 220.463 1273.84 204.277 1261.97 192.293L1091.28 19.9622C1079.26 7.82719 1062.89 1 1045.81 1H233.555C216.554 1 200.252 7.76416 188.245 19.8001Z" stroke="#F5D64E"/>
<path d="M640.998 128.742C643.207 128.742 644.998 126.951 644.998 124.742C644.998 122.533 643.207 120.742 640.998 120.742C638.789 120.742 636.998 122.533 636.998 124.742C636.998 126.951 638.789 128.742 640.998 128.742Z" stroke="#F5D64E"/>
<path d="M640.998 128.784V199.591" stroke="#F5D64E"/>
<path d="M640.998 89V121" stroke="#F5D64E"/>
<path d="M625.678 109.475L638.012 121.809" stroke="#F5D64E"/>
<path d="M655.961 109.75L643.961 121.75" stroke="#F5D64E"/>
<path d="M656.008 139.801L643.72 127.513" stroke="#F5D64E"/>
<path d="M625.632 140.048L638.101 127.579" stroke="#F5D64E"/>
<path d="M644.559 124.691H676.559" stroke="#F5D64E"/>
<path d="M605.441 124.691H637.441" stroke="#F5D64E"/>
</svg>