<svg width="513" height="513" viewBox="0 0 513 513" fill="none" xmlns="http://www.w3.org/2000/svg">
<path d="M256.5 310.63C286.395 310.63 310.63 286.395 310.63 256.5C310.63 226.605 286.395 202.37 256.5 202.37C226.605 202.37 202.37 226.605 202.37 256.5C202.37 286.395 226.605 310.63 256.5 310.63Z" stroke="#FFFFFF" stroke-miterlimit="10"/>
<path d="M122.11 436.9C151.22 458.62 185.76 473.46 223.32 479.01" stroke="#FFFFFF" stroke-miterlimit="10"/>
<path d="M33.96 289.45C39.43 326.72 54.04 361.02 75.44 390" stroke="#FFFFFF" stroke-miterlimit="10"/>
<path d="M75.4805 122.95C54.0905 151.9 39.4705 186.16 33.9805 223.39" stroke="#FFFFFF" stroke-miterlimit="10"/>
<path d="M223.41 33.9805C185.76 39.5305 151.15 54.4105 121.99 76.1905" stroke="#FFFFFF" stroke-miterlimit="10"/>
<path d="M391.14 76.29C361.94 54.44 327.25 39.51 289.51 33.96" stroke="#FFFFFF" stroke-miterlimit="10"/>
<path d="M479.07 223.71C473.63 186.45 459.06 152.16 437.69 123.18" stroke="#FFFFFF" stroke-miterlimit="10"/>
<path d="M437.54 390.02C458.92 361.08 473.52 326.83 479.02 289.62" stroke="#FFFFFF" stroke-miterlimit="10"/>
<path d="M289.64 479.02C327.27 473.46 361.86 458.59 391 436.82" stroke="#FFFFFF" stroke-miterlimit="10"/>
<path d="M256.5 66.54C274.737 66.54 289.52 51.7564 289.52 33.52C289.52 15.2836 274.737 0.5 256.5 0.5C238.264 0.5 223.48 15.2836 223.48 33.52C223.48 51.7564 238.264 66.54 256.5 66.54Z" stroke="#FFFFFF" stroke-miterlimit="10"/>
<path d="M98.9097 132.89C117.146 132.89 131.93 118.106 131.93 99.8696C131.93 81.6332 117.146 66.8496 98.9097 66.8496C80.6732 66.8496 65.8896 81.6332 65.8896 99.8696C65.8896 118.106 80.6732 132.89 98.9097 132.89Z" stroke="#FFFFFF" stroke-miterlimit="10"/>
<path d="M414.09 132.89C432.327 132.89 447.11 118.106 447.11 99.8696C447.11 81.6332 432.327 66.8496 414.09 66.8496C395.854 66.8496 381.07 81.6332 381.07 99.8696C381.07 118.106 395.854 132.89 414.09 132.89Z" stroke="#FFFFFF" stroke-miterlimit="10"/>
<path d="M98.9097 446.15C117.146 446.15 131.93 431.366 131.93 413.13C131.93 394.893 117.146 380.11 98.9097 380.11C80.6732 380.11 65.8896 394.893 65.8896 413.13C65.8896 431.366 80.6732 446.15 98.9097 446.15Z" stroke="#FFFFFF" stroke-miterlimit="10"/>
<path d="M414.09 446.15C432.327 446.15 447.11 431.366 447.11 413.13C447.11 394.893 432.327 380.11 414.09 380.11C395.854 380.11 381.07 394.893 381.07 413.13C381.07 431.366 395.854 446.15 414.09 446.15Z" stroke="#FFFFFF" stroke-miterlimit="10"/>
<path d="M33.52 289.52C51.7564 289.52 66.54 274.737 66.54 256.5C66.54 238.264 51.7564 223.48 33.52 223.48C15.2836 223.48 0.5 238.264 0.5 256.5C0.5 274.737 15.2836 289.52 33.52 289.52Z" stroke="#FFFFFF" stroke-miterlimit="10"/>
<path d="M479.48 289.52C497.716 289.52 512.5 274.737 512.5 256.5C512.5 238.264 497.716 223.48 479.48 223.48C461.244 223.48 446.46 238.264 446.46 256.5C446.46 274.737 461.244 289.52 479.48 289.52Z" stroke="#FFFFFF" stroke-miterlimit="10"/>
<path d="M256.5 512.5C274.737 512.5 289.52 497.716 289.52 479.48C289.52 461.244 274.737 446.46 256.5 446.46C238.264 446.46 223.48 461.244 223.48 479.48C223.48 497.716 238.264 512.5 256.5 512.5Z" stroke="#FFFFFF" stroke-miterlimit="10"/>
<path d="M256.5 66.5303V202.37" stroke="#FFFFFF" stroke-miterlimit="10"/>
<path d="M202.27 256.5H66.4297" stroke="#FFFFFF" stroke-miterlimit="10"/>
<path d="M446.06 256.5H310.21" stroke="#FFFFFF" stroke-miterlimit="10"/>
<path d="M256.5 310.51V446.47" stroke="#FFFFFF" stroke-miterlimit="10"/>
<path d="M106.66 380.97V132.25" stroke="#FFFFFF" stroke-miterlimit="10"/>
<path d="M381.97 406.34H131.26" stroke="#FFFFFF" stroke-miterlimit="10"/>
<path d="M406.34 131.76V381.08" stroke="#FFFFFF" stroke-miterlimit="10"/>
<path d="M131.28 106.66H381.86" stroke="#FFFFFF" stroke-miterlimit="10"/>
<path d="M239.42 451.32L61.9102 273.81" stroke="#FFFFFF" stroke-miterlimit="10"/>
<path d="M451.31 273.58L273.69 451.21" stroke="#FFFFFF" stroke-miterlimit="10"/>
<path d="M273.69 61.79L451.35 239.45" stroke="#FFFFFF" stroke-miterlimit="10"/>
<path d="M61.8604 239.24L239.5 61.5996" stroke="#FFFFFF" stroke-miterlimit="10"/>
</svg>
